<svg xmlns="http://www.w3.org/2000/svg" version="1.1" xmlns:xlink="http://www.w3.org/1999/xlink" xmlns:svgjs="http://svgjs.dev/svgjs" width="2000" height="1500" viewBox="0 0 2000 1500"><rect width="2000" height="1500" fill="#000000"></rect><g transform="matrix(0.75,0,0,0.75,249.67638483965015,0.05154664723022506)"><svg viewBox="0 0 343 343" data-background-color="#000000" preserveAspectRatio="xMidYMid meet" height="1999" width="2000" xmlns="http://www.w3.org/2000/svg" xmlns:xlink="http://www.w3.org/1999/xlink"><g id="tight-bounds" transform="matrix(1,0,0,1,0.07400000000001228,0.07400000000001228)"><svg viewBox="0 0 342.8515585177538 342.8515585177538" height="342.8515585177538" width="342.8515585177538"><rect width="342.852" height="342.852" fill="url(#e4737bac-1fc4-43c5-9ba6-02b4bda913aa)" mask="url(&quot;#12484b41-8d95-464b-b565-4c3c5008743c&quot;)" data-fill-palette-color="tertiary"></rect><g><svg></svg></g><g><svg viewBox="0 0 342.8515585177538 342.8515585177538" height="342.8515585177538" width="342.8515585177538"><g><path d="M0 171.426c0-94.676 76.75-171.426 171.426-171.426 94.676 0 171.426 76.75 171.426 171.426 0 94.676-76.75 171.426-171.426 171.426-94.676 0-171.426-76.75-171.426-171.426zM171.426 331.232c88.259 0 159.807-71.548 159.806-159.806 0-88.259-71.548-159.807-159.806-159.807-88.259 0-159.807 71.548-159.807 159.807 0 88.259 71.548 159.807 159.807 159.806z" data-fill-palette-color="tertiary" fill="url(#e4737bac-1fc4-43c5-9ba6-02b4bda913aa)" stroke="transparent"></path><ellipse rx="164.56874808852183" ry="164.56874808852183" cx="171.4257792588769" cy="171.4257792588769" fill="url(#e4737bac-1fc4-43c5-9ba6-02b4bda913aa)" stroke="transparent" stroke-width="0" fill-opacity="1" data-fill-palette-color="tertiary"></ellipse></g><g transform="matrix(1,0,0,1,64.84655864529836,107.00410335608522)"><svg viewBox="0 0 213.15844122715708 128.84335180558335" height="128.84335180558335" width="213.15844122715708"><g><svg viewBox="0 0 213.15844122715708 128.84335180558335" height="128.84335180558335" width="213.15844122715708"><g><svg viewBox="0 0 213.15844122715708 128.84335180558335" height="128.84335180558335" width="213.15844122715708"><g><svg viewBox="0 0 213.15844122715708 128.84335180558335" height="128.84335180558335" width="213.15844122715708"><g id="textblocktransform"><svg viewBox="0 0 213.15844122715708 128.84335180558335" height="128.84335180558335" width="213.15844122715708" id="textblock"><g><svg viewBox="0 0 213.15844122715708 128.84335180558335" height="128.84335180558335" width="213.15844122715708"><g transform="matrix(1,0,0,1,0,0)"><svg width="213.15844122715708" viewBox="-12.5 -31.25 51.7 31.25" height="128.84335180558335" data-palette-color="#ffffff"><path d="M27.2-7.55L27.2-7.55 21-7.55 19.7 0 10.2 0 15.7-31.25 30.7-31.25Q39.2-31.25 39.2-23.35L39.2-23.35Q39.2-19.6 38.15-16.57 37.1-13.55 35.83-11.78 34.55-10 32.33-8.78 30.1-7.55 27.2-7.55ZM22.4-15.55L24.6-15.55Q26.3-15.55 27.18-15.93 28.05-16.3 28.3-17.65L28.3-17.65Q28.95-21.35 28.95-21.7L28.95-21.7Q28.95-22.65 28.2-22.95 27.45-23.25 25.95-23.25L25.95-23.25 23.75-23.25 22.4-15.55ZM9.1-2.4L8.7-0.15-12.5-2.4 9.1-2.4ZM10.8-12.05L10.4-9.8-10.8-12.05 10.8-12.05ZM12.45-21.65L12.05-19.4-9.1-21.65 12.45-21.65ZM13.3-26.45L12.9-24.2-8.25-26.45 13.3-26.45ZM9.95-7.25L9.55-5-11.65-7.25 9.95-7.25ZM14.15-31.25L13.75-29-7.4-31.25 14.15-31.25ZM11.6-16.85L11.2-14.6-9.95-16.85 11.6-16.85Z" opacity="1" transform="matrix(1,0,0,1,0,0)" fill="#ffffff" class="undefined-text-0" data-fill-palette-color="quaternary" id="text-0"></path></svg></g></svg></g></svg></g></svg></g><g></g></svg></g></svg></g></svg></g></svg></g><defs><linearGradient x1="0" x2="1" y1="0.5" y2="0.5" id="e4737bac-1fc4-43c5-9ba6-02b4bda913aa"><stop stop-color="#ffa62e" offset="0"></stop><stop stop-color="#f71b3d" offset="1"></stop></linearGradient></defs><mask id="12484b41-8d95-464b-b565-4c3c5008743c"><g id="SvgjsG1114"><svg viewBox="0 0 342.8515585177538 342.8515585177538" height="342.8515585177538" width="342.8515585177538"><g><svg></svg></g><g><svg viewBox="0 0 342.8515585177538 342.8515585177538" height="342.8515585177538" width="342.8515585177538"><g><path d="M0 171.426c0-94.676 76.75-171.426 171.426-171.426 94.676 0 171.426 76.75 171.426 171.426 0 94.676-76.75 171.426-171.426 171.426-94.676 0-171.426-76.75-171.426-171.426zM171.426 331.232c88.259 0 159.807-71.548 159.806-159.806 0-88.259-71.548-159.807-159.806-159.807-88.259 0-159.807 71.548-159.807 159.807 0 88.259 71.548 159.807 159.807 159.806z" fill="white" stroke="transparent"></path><ellipse rx="164.56874808852183" ry="164.56874808852183" cx="171.4257792588769" cy="171.4257792588769" fill="white" stroke="transparent" stroke-width="0" fill-opacity="1"></ellipse></g><g transform="matrix(1,0,0,1,64.84655864529836,107.00410335608522)"><svg viewBox="0 0 213.15844122715708 128.84335180558335" height="128.84335180558335" width="213.15844122715708"><g><svg viewBox="0 0 213.15844122715708 128.84335180558335" height="128.84335180558335" width="213.15844122715708"><g><svg viewBox="0 0 213.15844122715708 128.84335180558335" height="128.84335180558335" width="213.15844122715708"><g><svg viewBox="0 0 213.15844122715708 128.84335180558335" height="128.84335180558335" width="213.15844122715708"><g id="SvgjsG1113"><svg viewBox="0 0 213.15844122715708 128.84335180558335" height="128.84335180558335" width="213.15844122715708" id="SvgjsSvg1112"><g><svg viewBox="0 0 213.15844122715708 128.84335180558335" height="128.84335180558335" width="213.15844122715708"><g transform="matrix(1,0,0,1,0,0)"><svg width="213.15844122715708" viewBox="-12.5 -31.25 51.7 31.25" height="128.84335180558335" data-palette-color="#ffffff"></svg></g></svg></g></svg></g></svg></g><g></g></svg></g></svg></g></svg></g></svg></g><defs><mask></mask></defs></svg></g></mask></svg><rect width="342.8515585177538" height="342.8515585177538" fill="none" stroke="none" visibility="hidden"></rect></g></svg></g></svg>